<?xml version="1.0" standalone="no"?>
<!DOCTYPE svg PUBLIC "-//W3C//DTD SVG 20010904//EN"
 "http://www.w3.org/TR/2001/REC-SVG-20010904/DTD/svg10.dtd">
<svg version="1.0" xmlns="http://www.w3.org/2000/svg"
 width="393.000000pt" height="393.000000pt" viewBox="0 0 393.000000 393.000000"
 preserveAspectRatio="xMidYMid meet">
<metadata>
Created by potrace 1.14, written by Peter Selinger 2001-2017
</metadata>
<g transform="translate(0.000000,393.000000) scale(0.100000,-0.100000)"
fill="#000000" stroke="none">
<path d="M1935 3919 c-71 -9 -113 -29 -167 -80 -50 -47 -751 -944 -795 -1017
-34 -57 -37 -138 -7 -179 32 -45 104 -75 195 -82 l79 -6 -36 -45 c-19 -25 -46
-58 -58 -75 -13 -16 -106 -136 -207 -265 -216 -277 -233 -305 -233 -375 0
-115 84 -162 286 -160 l96 1 -18 -26 c-10 -14 -56 -73 -102 -131 -45 -58 -94
-121 -108 -139 -14 -18 -68 -87 -120 -154 -265 -339 -300 -388 -315 -438 -26
-88 8 -155 100 -194 36 -16 96 -18 650 -18 l610 -2 -1 -54 c-1 -61 -14 -244
-20 -275 -2 -11 -7 -61 -10 -110 l-6 -90 213 1 c118 1 218 2 222 3 5 0 6 13 3
28 -3 16 -8 66 -11 113 -6 82 -9 113 -20 210 -3 25 -7 74 -9 110 l-5 65 582 0
c320 -1 605 3 632 8 107 18 173 85 160 165 -8 57 -25 92 -74 157 -64 85 -501
646 -515 661 -20 22 -71 95 -71 102 0 3 45 7 100 7 117 2 158 10 204 38 69 42
88 115 52 199 -10 24 -131 188 -270 366 l-251 322 58 1 c106 1 159 19 206 68
43 45 46 109 9 181 -30 59 -741 978 -797 1030 -64 61 -150 90 -231 79z"/>
</g>
</svg>
